<svg xmlns="http://www.w3.org/2000/svg" width="118.697" height="102.958" viewBox="0 0 118.697 102.958">
    <defs>
        <style>.a{fill:#004493;}.a,.b{stroke:rgba(0,0,0,0);stroke-miterlimit:10;}.b{fill:#161615;}</style>
    </defs>
    <g transform="translate(-17.764 -15.404)">
        <path class="a" d="M22098-2063.04v-7.845h58.832v7.845Zm58.859-94.118V-2165h58.838v7.839Z" transform="translate(-22079.738 2180.902)"/>
        <path class="b" d="M22116.26-2121.777a17.681,17.681,0,0,1,17.547-17.949,17.718,17.718,0,0,1,17.594,17.949,17.631,17.631,0,0,1-17.594,17.844A17.593,17.593,0,0,1,22116.26-2121.777Zm4.891,0a12.8,12.8,0,0,0,12.656,12.875,12.817,12.817,0,0,0,12.709-12.875,12.933,12.933,0,0,0-12.709-12.976A12.92,12.92,0,0,0,22121.15-2121.777Zm86.367,17.6a.93.93,0,0,1-.83-.546l-8.6-24.7h-.246l-8.453,24.7a.933.933,0,0,1-.832.546h-.785a.931.931,0,0,1-.875-.691l-9.24-33.407a.863.863,0,0,1,.881-1.193h3.273a1.015,1.015,0,0,1,.881.7l5.916,22.817h.2l7.963-23.464a.885.885,0,0,1,.83-.546h.881a.882.882,0,0,1,.832.546l8.063,23.464h.2l5.816-22.817a1.015,1.015,0,0,1,.881-.7h3.273a.863.863,0,0,1,.881,1.193l-9.24,33.407a.931.931,0,0,1-.875.691Zm-29.006,0a1.133,1.133,0,0,1-1.121-.742l-3.033-6.808h-15.982c-.975,2.286-2,4.522-2.977,6.808a1.239,1.239,0,0,1-1.127.742h-3.078a.871.871,0,0,1-.83-1.288l15-33.457a1.161,1.161,0,0,1,.836-.546h.484a1.144,1.144,0,0,1,.832.546l14.9,33.457a.871.871,0,0,1-.83,1.288Zm-18.229-11.827h12.217l-6.012-13.623h-.244Zm-23.6-30.356a2.739,2.739,0,0,1,2.738-2.738h0a2.734,2.734,0,0,1,2.732,2.738,2.734,2.734,0,0,1-2.732,2.738A2.74,2.74,0,0,1,22136.68-2146.362Zm-11.176,0a2.737,2.737,0,0,1,2.738-2.738,2.739,2.739,0,0,1,2.738,2.738,2.739,2.739,0,0,1-2.738,2.738A2.739,2.739,0,0,1,22125.5-2146.362Z" transform="translate(-22090.434 2190.66)"/>
    </g>
</svg>