<svg xmlns="http://www.w3.org/2000/svg" width="177.365" height="53.57" viewBox="0 0 177.365 53.57">
    <defs>
        <style>.a{fill:#6c6c6c;stroke:rgba(0,0,0,0);stroke-miterlimit:10;}</style>
    </defs>
    <path class="a" d="M22826.369-2282.249c-14.238-6.535-19.164-24.572-10.539-37.654,7.145-10.845,21.506-14.728,33.887-10.448a22.629,22.629,0,0,1,12.662,9.953c-1.75,1.082-3.354,2.077-5.062,3.135a22.96,22.96,0,0,0-7.279-6.254c-9.6-4.873-24.771-3.371-30.531,10.062-5.229,12.191,3.441,26.378,16.736,27.742,8.152.84,15.027-1.513,20.4-7.83.178-.207.334-.426.588-.748,1.76,1.139,3.416,2.215,5.148,3.337a24.705,24.705,0,0,1-14.486,10.171,35.71,35.71,0,0,1-9.115,1.242A29.4,29.4,0,0,1,22826.369-2282.249Zm63.625,1.553c-12.082-3.222-19.947-17.156-17.3-30.256,2.445-12.087,12.783-23.2,29.531-20.815,12.041,1.709,21.742,12.22,21.488,26.39h-44.668a19.03,19.03,0,0,0,10.869,18.255c5.08,2.267,10.246,2.048,15.418.219,5.281-1.864,8.652-5.822,11.391-10.545,1.859.972,3.572,1.864,5.275,2.75a24.912,24.912,0,0,1-23.508,15.156A33.007,33.007,0,0,1,22889.994-2280.7Zm6.316-45.174a17.891,17.891,0,0,0-16.551,14.935h36.854c-1.986-9.236-9.225-14.991-18.666-14.992Q22897.139-2325.926,22896.311-2325.87Zm-137.109,42.188c-8.924-5.8-13.359-16.592-11.34-27.6a26.116,26.116,0,0,1,20.385-20.314c9.2-1.709,17.1.88,23.328,8.054.375.437.76.875,1.434,1.651v-8.843h6.316v49.765h-6.248v-7.974a4.141,4.141,0,0,0-1.812,1.5,25.479,25.479,0,0,1-18.3,7.889A25.176,25.176,0,0,1,22759.2-2283.682Zm14.412-42.217a19.912,19.912,0,0,0-19.682,20.165c.035,11.069,8.936,20.211,19.7,20.245a19.7,19.7,0,0,0,19.9-20.211c-.076-11.472-8.654-20.2-19.818-20.2Z" transform="translate(-22746.855 2332.61)"/>
</svg>