<svg xmlns="http://www.w3.org/2000/svg" version="1.1" xmlns:dc="http://purl.org/dc/elements/1.1/" fill="currentColor" viewBox="0 0 8.99 16.04">
   <metadata>
	<dc:creator>Bernhard Oberreither</dc:creator>
	<dc:creator>https://d-nb.info/gnd/1036708799</dc:creator>
	</metadata>
  <path d="M3.7,10.21c-.4-1.2-.55-1.92-.94-3.11-.61.98-1.2,1.55-2.21,2.13-.09-.14-.38-.75-.47-.89,1.31-.74,2.25-1.82,2.82-3.22h.03c.19.64.37,1.27.56,1.91.12.47.29.98.41,1.45l1.61-2.47c.03-.05.04-.14.02-.2-.36-1.11-.6-2.14-.57-3.3.01-.53.07-1.06.32-1.55.3-.57.72-.88,1.81-.88.39-.02.68.17.94.45.25.28.31.62.29.97-.02.32-.09.64-.17.96-.2.52-.28.72-.44,1.06-.22.53-.3.62-.58,1.2-.2.42-.43.84-.65,1.25-.04.07-.05.13-.01.21.19.43.37.86.58,1.28.3.61.62,1.21.92,1.82.4.8.62,1.66.76,2.53.12.78.17,1.58.08,2.37-.06.52-.22,1-.65,1.34-.33.25-.7.39-1.12.44-.62.07-1.21-.03-1.79-.24-.41-.15-.76-.38-1.08-.68-.61-.59-.65-1.53-.27-2.09.05-.08.11-.15.18-.21.06-.06.14-.1.23-.16l.28.26q.16.15.33.31c-.41.35-.55.66-.39,1.13.18.56.41.67.8,1.01.37.22.85.36,1.17.36.4-.03.64-.13,1.02-.34.34-.3.45-.56.52-1.06.1-.72.06-1.44-.04-2.15-.04-.29-.08-.59-.16-.87-.22-.81-.49-1.61-.88-2.36-.37-.72-.58-1.33-.95-2.07M6.1,4.92c.29-.59.45-.91.74-1.5.13-.28.25-.56.38-.85.2-.46.34-.93.29-1.45-.05-.48-.16-.92-.59-.84-.44.09-.68.63-.85,1.02-.1.22-.15.46-.18.7-.09.73-.06,1.46.06,2.19"/>
</svg>
