<?xml version="1.0" encoding="UTF-8"?>
<svg id="Ebene_1" xmlns="http://www.w3.org/2000/svg" viewBox="0 0 89.27 165.88">
  <defs>
    <style>
      .cls-1 {
        fill: none;
        stroke: #000;
        stroke-miterlimit: 10;
        stroke-width: 5px;
      }
    </style>
  </defs>
  <path class="cls-1" d="M1.21,88.4c11.73-6.5,21.35-16.74,27.11-28.85,3.49,13.04,7.49,25.95,11.99,38.67,14.87-22.12,27.59-45.68,37.94-70.24,3.48-8.25,5.63-19.94-2.19-24.31-5.14-2.87-12.01-.15-15.47,4.61s-4.27,10.92-4.46,16.81c-.47,14.76,2.27,29.61,7.98,43.23,4.22,10.06,10.01,19.39,14.26,29.43,5.92,13.95,8.78,29.19,8.35,44.34-.15,5.04-.75,10.33-3.71,14.41-5.25,7.22-15.86,7.96-24.54,5.84-6.87-1.68-13.78-5.02-17.49-11.05s-2.92-15.12,3.08-18.88"/>
</svg>