<?xml version="1.0" encoding="UTF-8"?>
<svg id="icon-quelle-bg" xmlns="http://www.w3.org/2000/svg" version="1.1" width="25" height="25"  viewBox="0 0 25 25">
  <!-- Generator: Adobe Illustrator 29.8.3, SVG Export Plug-In . SVG Version: 2.1.1 Build 3)  -->
  <defs>
    <style>
      .st0 {
        stroke-width: 1.8px;
      }

      .st0, .st1, .st2, .st3, .st4, .st5 {
        fill: none;
      }

      .st0, .st1, .st4, .st5 {
        stroke: #a21a17;
      }

      .st0, .st1, .st5 {
        stroke-linejoin: round;
      }

      .st1, .st3 {
        stroke-width: 1.4px;
      }

      .st2 {
        stroke: #d8d8d8;
      }

      .st3 {
        stroke: #6d6d6c;
      }

      .st6 {
        fill: #d8d8d8;
      }

      .st7 {
        fill: #fff;
      }
    </style>
  </defs>
  <g id="Rechteck_259">
    <path class="st6" d="M12.42-.03h0C19.32-.03,24.92,5.57,24.92,12.47h0c0,6.9-5.6,12.5-12.5,12.5h0c-6.91,0-12.5-5.59-12.5-12.5H-.08C-.08,5.57,5.51-.03,12.42-.03Z"/>
  </g>
  <g id="Rechteck_2591">
    <path class="st7" d="M20.1,2.58v19.85c-2.1,1.61-4.74,2.57-7.6,2.57-3.45,0-6.57-1.4-8.84-3.66C1.4,19.08,0,15.96,0,12.5S1.4,5.92,3.66,3.66C5.93,1.4,9.05,0,12.5,0,15.36,0,18,.96,20.1,2.58Z"/>
  </g>
  <path id="Pfad_28" class="st1" d="M14.9,8.09h3.88"/>
  <path id="Pfad_281" class="st5" d="M18.1,15.49"/>
  <path id="Linie_51" class="st4" d="M13.2,13.36"/>
  <path id="Linie_52" class="st4" d="M3.34,13.36"/>
  <path id="Linie_53" class="st4" d="M13.2,9.45"/>
  <path id="Linie_54" class="st4" d="M3.34,9.45"/>
  <path id="Linie_55" class="st4" d="M13.2,13.11"/>
  <path id="Linie_56" class="st4" d="M3.34,13.11"/>
  <path id="Linie_57" class="st4" d="M13.2,16.78"/>
  <path id="Linie_58" class="st4" d="M3.34,16.78"/>
  <path id="Pfad_282" class="st1" d="M14.9,16.91h3.88"/>
  <line id="Linie_512" class="st3" x1="4.36" y1="3.68" x2="13.45" y2="3.68"/>
  <line id="Linie_59" class="st3" x1="1.34" y1="8.09" x2="13.45" y2="8.09"/>
  <line id="Linie_510" class="st3" x1=".5" y1="12.5" x2="13.45" y2="12.5"/>
  <line id="Linie_511" class="st3" x1="1.11" y1="16.91" x2="13.45" y2="16.91"/>
  <line id="Linie_5121" data-name="Linie_512" class="st3" x1="4.36" y1="21.32" x2="13.45" y2="21.32"/>
  <path id="Pfad_283" class="st0" d="M6.11,8.09h4.67"/>
  <path id="Pfad_284" class="st0" d="M3,16.91h4.67"/>
  <g id="Rechteck_2592">
    <path class="st2" d="M12.5.5h0c6.63,0,12,5.37,12,12h0c0,6.63-5.37,12-12,12h0C5.87,24.5.5,19.13.5,12.5h0C.5,5.87,5.87.5,12.5.5Z"/>
  </g>
</svg>