<?xml version="1.0" encoding="UTF-8"?>
<svg id="icon-quelle-bg" xmlns="http://www.w3.org/2000/svg" version="1.1" width="25" height="25"  viewBox="0 0 25 25">
  <!-- Generator: Adobe Illustrator 29.8.3, SVG Export Plug-In . SVG Version: 2.1.1 Build 3)  -->
  <defs>
    <style>
      .st0 {
        stroke: #d8d8d8;
      }

      .st0, .st1 {
        fill: none;
      }

      .st2 {
        fill: #a21a17;
      }

      .st3 {
        fill: #fff;
      }

      .st1 {
        stroke: #a21a17;
      }
    </style>
  </defs>
  <g id="Rechteck_259">
    <path class="st3" d="M12.5,0h0C19.4,0,25,5.6,25,12.5h0c0,6.9-5.6,12.5-12.5,12.5h0C5.6,25,0,19.4,0,12.5h0C0,5.6,5.6,0,12.5,0Z"/>
    <path class="st0" d="M12.5.5h0c6.63,0,12,5.37,12,12h0c0,6.63-5.37,12-12,12h0C5.87,24.5.5,19.13.5,12.5h0C.5,5.87,5.87.5,12.5.5Z"/>
  </g>
  <g id="icon-quelle">
    <g id="Gruppe_54">
      <path id="Linie_5" class="st1" d="M16.77,12.53"/>
      <path id="Linie_51" data-name="Linie_5" class="st1" d="M10.73,12.53"/>
      <path id="Linie_6" class="st1" d="M16.77,14.75"/>
      <path id="Linie_61" data-name="Linie_6" class="st1" d="M10.73,14.75"/>
      <path id="Linie_7" class="st1" d="M16.77,16.98"/>
      <path id="Linie_71" data-name="Linie_7" class="st1" d="M10.73,16.98"/>
    </g>
  </g>
  <path class="st2" d="M11.5,14.32c0-.38-.01-.72-.04-1.02-.02-.3-.1-.54-.22-.74-.12-.2-.3-.36-.54-.49-.24-.13-.57-.22-.98-.26v-.34l3.65-.24v7.06c0,.4.03.72.1.95.06.23.17.41.32.53s.35.2.59.25.54.08.89.1v.29c-.56-.03-1.12-.06-1.69-.07-.57-.02-1.13-.02-1.69-.02-.37,0-.73,0-1.08.02-.35.02-.71.04-1.08.07v-.29c.32-.02.59-.05.82-.1s.41-.13.55-.25.25-.3.31-.53c.06-.23.1-.55.1-.95v-3.96ZM12.2,4.16c.35,0,.65.13.9.4s.37.57.37.92-.12.66-.37.92c-.25.26-.55.4-.9.4s-.65-.13-.9-.4c-.25-.26-.37-.57-.37-.92s.12-.66.37-.92c.25-.26.55-.4.9-.4Z"/>
</svg>