<svg xmlns="http://www.w3.org/2000/svg" width="90.516" height="100.003" viewBox="0 0 90.516 100.003">
    <defs>
        <style>.a{fill:#88dbdf;}</style>
    </defs>
    <g transform="translate(-311.787 -344.453)">
        <path class="a" d="M380.869,396.745c-11.524,0-16.373,8-16.475,8.168l-.009.011V382.782l.006.005a24,24,0,0,0,4.192,4.221.056.056,0,0,0,.018.016q.771.6,1.594,1.143l.151.1c.287.184.574.362.866.534.109.063.219.128.334.191.208.12.425.236.642.349.159.085.318.167.479.248.136.065.269.133.4.2.243.115.488.226.738.333.115.052.232.1.35.146.237.1.475.194.718.283.112.042.222.081.331.121.245.087.49.171.735.249l.287.093c.292.088.584.171.877.247.1.03.208.056.312.082q.445.111.895.206c.1.021.2.038.3.058.245.048.493.091.738.131.13.021.256.043.381.062.263.036.526.07.79.1.146.015.29.033.436.044.267.026.537.044.8.063.183.01.365.016.548.022.128.006.256.009.386.011.156,0,.309.007.465.007a23.673,23.673,0,0,0,16.746-6.921l-3.325-3.324a19,19,0,0,1-9.589,5.148c-.186.037-.373.066-.559.1-.117.021-.237.045-.356.064a19.212,19.212,0,0,1-2.917.225,19.01,19.01,0,0,1-18.773-16.1v-5.848a19.006,19.006,0,0,1,32.244-10.506l3.328-3.327a23.7,23.7,0,0,0-30.964-2.258l-.013.011q-.873.654-1.677,1.381c-.039.037-.078.072-.12.108q-.36.332-.712.68c-.05.048-.1.1-.144.146-.235.233-.462.471-.684.715l-.078.09c-.217.237-.426.48-.629.725-.028.034-.061.068-.086.1-.156.192-.311.389-.459.585v-.009a.014.014,0,0,0-.008.007v-9.379H359.3v37.93h0v62.068h4.961V418.3a9.974,9.974,0,0,1,.131-1.432c.662-4.466,4.145-15.3,16.35-15.3,13.878,0,16.852,13.88,16.852,18.215v24.663H402.3V420.91C402.3,406.655,392.513,396.745,380.869,396.745Z"/>
        <path d="M354.406,344.453v9.711a24.945,24.945,0,0,0-1.7-2.115,22.17,22.17,0,0,0-15.177-7.472c-.7-.056-1.412-.091-2.14-.091s-1.44.035-2.142.091a22.166,22.166,0,0,0-15.219,7.511,23.492,23.492,0,0,0-6.242,16.225c0,.023,0,.047,0,.068s0,.042,0,.064a23.54,23.54,0,0,0,6.6,16.495q6.6,7.086,17,7.086,10.365,0,16.964-7.086a26.565,26.565,0,0,0,2.049-2.524v24.037a24.165,24.165,0,0,0-1.7-2.108,23.613,23.613,0,0,0-34.676.038,23.483,23.483,0,0,0-6.242,16.225c0,.021,0,.042,0,.068s0,.041,0,.062a23.54,23.54,0,0,0,6.6,16.5q6.6,7.083,17,7.085,10.365,0,16.966-7.085a26.98,26.98,0,0,0,2.047-2.527v9.747h5.027v-100h-5.026ZM335.551,387.42a19.036,19.036,0,1,1,18.854-21.5v4.933A19.019,19.019,0,0,1,335.551,387.42Zm0,52.289a19.035,19.035,0,1,1,18.852-21.5v4.933A19.017,19.017,0,0,1,335.554,439.709Z"/>
    </g>
</svg>